<?xml version="1.0" encoding="UTF-8" standalone="no"?>
<!-- Created with Inkscape (http://www.inkscape.org/) -->

<svg
   width="210mm"
   height="297mm"
   viewBox="0 0 210 297"
   version="1.1"
   id="svg1"
   inkscape:version="1.4 (86a8ad7, 2024-10-11)"
   sodipodi:docname="描画.svg"
   xmlns:inkscape="http://www.inkscape.org/namespaces/inkscape"
   xmlns:sodipodi="http://sodipodi.sourceforge.net/DTD/sodipodi-0.dtd"
   xmlns="http://www.w3.org/2000/svg"
   xmlns:svg="http://www.w3.org/2000/svg">
  <sodipodi:namedview
     id="namedview1"
     pagecolor="#ffffff"
     bordercolor="#000000"
     borderopacity="0.25"
     inkscape:showpageshadow="2"
     inkscape:pageopacity="0.0"
     inkscape:pagecheckerboard="0"
     inkscape:deskcolor="#d1d1d1"
     inkscape:document-units="mm"
     inkscape:zoom="0.25"
     inkscape:cx="116"
     inkscape:cy="965.99999"
     inkscape:window-width="1920"
     inkscape:window-height="1106"
     inkscape:window-x="-11"
     inkscape:window-y="-11"
     inkscape:window-maximized="1"
     inkscape:current-layer="layer1" />
  <defs
     id="defs1" />
  <g
     inkscape:label="Layer 1"
     inkscape:groupmode="layer"
     id="layer1">
    <path
       id="rect1"
       style="fill:#ffffff;fill-opacity:1;stroke-width:0"
       d="m 16.994998,-3.9459981 c -12.7759999,0 -23.0469999,10.3749996 -23.0469999,23.1519991 V 277.898 c 0,12.776 10.271,23.048 23.0469999,23.048 H 193.004 c 12.777,0 23.048,-10.272 23.048,-23.048 V 19.206001 c 0,-12.7769995 -10.271,-23.1519991 -23.048,-23.1519991 z m 4.34,15.8129991 c 0.4,-0.04 0.8,0 1.24,0 H 187.423 c 6.86,0 12.403,5.55 12.403,12.403 v 37.62 c 0,6.86 -5.55,12.402 -12.403,12.402 H 22.574998 c -6.86,0 -12.402,-5.55 -12.402,-12.402 v -37.62 c 0,-6.43 4.91,-11.771 11.161,-12.403 z m 15.4,87.334 a 22.456054,22.456054 0 0 1 22.427,22.426999 22.456054,22.456054 0 0 1 -22.427,22.428 22.456054,22.456054 0 0 1 -22.428,-22.428 22.456054,22.456054 0 0 1 22.428,-22.426999 z m 66.456002,0 A 22.456054,22.456054 0 0 1 125.618,121.628 22.456054,22.456054 0 0 1 103.191,144.056 22.456054,22.456054 0 0 1 80.762998,121.628 22.456054,22.456054 0 0 1 103.191,99.201001 Z m 70.073,0 A 22.456054,22.456054 0 0 1 195.691,121.628 22.456054,22.456054 0 0 1 173.264,144.056 22.456054,22.456054 0 0 1 150.836,121.628 22.456054,22.456054 0 0 1 173.264,99.201001 Z M 36.734998,159.352 a 22.456054,22.456054 0 0 1 22.427,22.531 22.456054,22.456054 0 0 1 -22.427,22.427 22.456054,22.456054 0 0 1 -22.428,-22.427 22.456054,22.456054 0 0 1 22.428,-22.531 z m 66.456002,0 A 22.456054,22.456054 0 0 1 125.618,181.883 22.456054,22.456054 0 0 1 103.191,204.31 22.456054,22.456054 0 0 1 80.762998,181.883 22.456054,22.456054 0 0 1 103.191,159.352 Z m 70.073,0 a 22.456054,22.456054 0 0 1 22.427,22.531 22.456054,22.456054 0 0 1 -22.427,22.427 22.456054,22.456054 0 0 1 -22.428,-22.427 22.456054,22.456054 0 0 1 22.428,-22.531 z M 36.734998,223.121 a 22.456054,22.456054 0 0 1 22.427,22.427 22.456054,22.456054 0 0 1 -22.427,22.531 22.456054,22.456054 0 0 1 -22.428,-22.531 22.456054,22.456054 0 0 1 22.428,-22.427 z m 66.456002,0 a 22.456054,22.456054 0 0 1 22.427,22.427 22.456054,22.456054 0 0 1 -22.427,22.531 A 22.456054,22.456054 0 0 1 80.762998,245.548 22.456054,22.456054 0 0 1 103.191,223.121 Z m 70.073,0 a 22.456054,22.456054 0 0 1 22.427,22.427 22.456054,22.456054 0 0 1 -22.427,22.531 22.456054,22.456054 0 0 1 -22.428,-22.531 22.456054,22.456054 0 0 1 22.428,-22.427 z" />
  </g>
</svg>
